<svg width="40" height="24" viewBox="0 0 40 24" fill="none" xmlns="http://www.w3.org/2000/svg" xmlns:xlink="http://www.w3.org/1999/xlink">
<path d="M8,18C7.47,18 6.961,17.789 6.586,17.414C6.211,17.039 6,16.53 6,16L6,8C6,7.47 6.211,6.961 6.586,6.586C6.961,6.211 7.47,6 8,6L20,6L20,18L8,18Z" fill="#070707"/>
<path d="M32,0L6,0C4.409,0 2.883,0.632 1.757,1.757C0.632,2.883 0,4.409 0,6L0,18C0,19.591 0.632,21.117 1.757,22.243C2.883,23.368 4.409,24 6,24L32,24C33.591,24 35.117,23.368 36.243,22.243C37.368,21.117 38,19.591 38,18C38.53,18 39.039,17.789 39.414,17.414C39.789,17.039 40,16.53 40,16L40,8C40,7.47 39.789,6.961 39.414,6.586C39.039,6.211 38.53,6 38,6C38,4.409 37.368,2.883 36.243,1.757C35.117,0.632 33.591,0 32,0ZM32,4L6,4C5.47,4 4.961,4.211 4.586,4.586C4.211,4.961 4,5.47 4,6L4,18C4,18.53 4.211,19.039 4.586,19.414C4.961,19.789 5.47,20 6,20L32,20C32.53,20 33.039,19.789 33.414,19.414C33.789,19.039 34,18.53 34,18L34,6C34,5.47 33.789,4.961 33.414,4.586C33.039,4.211 32.53,4 32,4Z" clip-rule="evenodd" fill-rule="evenodd" fill="#0D0D0D"/>
</svg>
