<svg width="138" height="116" viewBox="0 0 138 116" fill="none" xmlns="http://www.w3.org/2000/svg" xmlns:xlink="http://www.w3.org/1999/xlink">
<g filter="url(#filter53_623)">
<rect  x="0" y="0" width="136" height="114" rx="119" fill="#FFFFFF" fill-opacity="0.16" stroke="#000000" stroke-opacity="0.04" stroke-width="1" stroke-miterlimit="3.999327"/>
</g>
<path d="M55.262,14.493C45.87,17.682 37.771,23.734 32.153,31.762C26.535,39.789 23.696,49.368 24.052,59.091C24.408,68.815 27.94,78.17 34.13,85.783C40.32,93.397 48.841,98.867 58.442,101.39C66.226,103.356 74.381,103.442 82.207,101.641C89.296,100.083 95.85,96.749 101.227,91.967C106.823,86.838 110.886,80.312 112.977,73.093C115.249,65.241 115.654,56.985 114.159,48.957L70.449,48.957L70.449,66.703L95.763,66.703C95.257,69.533 94.173,72.235 92.576,74.645C90.978,77.056 88.9,79.127 86.466,80.733C83.375,82.735 79.891,84.082 76.236,84.686C72.571,85.353 68.812,85.353 65.147,84.686C61.432,83.935 57.918,82.435 54.829,80.28C49.866,76.842 46.139,71.956 44.181,66.322C42.19,60.582 42.19,54.359 44.181,48.619C45.575,44.596 47.879,40.932 50.922,37.903C54.405,34.372 58.813,31.848 63.665,30.608C68.516,29.368 73.623,29.46 78.425,30.873C82.176,32 85.606,33.969 88.441,36.623C91.296,33.844 94.145,31.058 96.99,28.264C98.458,26.762 100.059,25.332 101.506,23.794C97.177,19.851 92.096,16.784 86.554,14.766C76.462,11.179 65.419,11.083 55.262,14.493Z" fill="#FFFFFF"/>
<path d="M55.262,14.492C65.418,11.08 76.461,11.174 86.554,14.758C92.097,16.79 97.176,19.872 101.499,23.829C100.03,25.367 98.48,26.805 96.982,28.3C94.133,31.084 91.286,33.858 88.442,36.623C85.606,33.968 82.176,31.999 78.425,30.873C73.625,29.454 68.518,29.357 63.665,30.592C58.813,31.827 54.401,34.346 50.915,37.873C47.872,40.903 45.567,44.567 44.173,48.59L28.95,37.054C34.399,26.478 43.834,18.388 55.262,14.492Z" fill="#E33629"/>
<path d="M24.911,48.482C25.728,44.513 27.087,40.669 28.95,37.054L44.173,48.619C42.182,54.359 42.182,60.582 44.173,66.322C39.101,70.155 34.027,74.008 28.95,77.879C24.287,68.796 22.866,58.448 24.911,48.482Z" fill="#F8BD00"/>
<path d="M70.45,48.95L114.159,48.95C115.654,56.978 115.249,65.234 112.977,73.085C110.886,80.305 106.824,86.83 101.227,91.96C96.314,88.208 91.379,84.485 86.466,80.733C88.902,79.125 90.981,77.052 92.578,74.639C94.176,72.226 95.259,69.521 95.763,66.688L70.45,66.688C70.442,60.78 70.45,54.865 70.45,48.95Z" fill="#587DBD"/>
<path d="M28.942,77.879C34.019,74.046 39.094,70.193 44.166,66.322C46.128,71.958 49.86,76.844 54.829,80.28C57.928,82.424 61.449,83.913 65.169,84.65C68.834,85.317 72.593,85.317 76.258,84.65C79.913,84.045 83.397,82.699 86.488,80.697C91.401,84.449 96.336,88.172 101.249,91.924C95.873,96.709 89.318,100.045 82.229,101.605C74.403,103.406 66.248,103.319 58.464,101.354C52.308,99.745 46.558,96.909 41.574,93.023C36.299,88.924 31.99,83.758 28.942,77.879Z" fill="#319F43"/>
<defs>
<filter id="filter53_623" x="-4" y="-4" width="77" height="66" filterUnits="userSpaceOnUse" color-interpolation-filters="sRGB">
<feFlood flood-opacity="0" result="BackgroundImageFix"/>
<feColorMatrix in="SourceAlpha" type="matrix" values="0 0 0 0 0 0 0 0 0 0 0 0 0 0 0 0 0 0 127 0" result="hardAlpha"/>
<feMorphology radius="0" operator="dilate" in="SourceAlpha" result="0dropshadow"/>
<feOffset dx="0" dy="4"/>
<feGaussianBlur stdDeviation="2"/>
<feComposite in2="hardAlpha" operator="out"/>
<feColorMatrix type="matrix" values="0 0 0 0 0 0 0 0 0 0 0 0 0 0 0 0 0 0 0.25 0"/>
<feBlend mode="normal" in2="BackgroundImageFix" result="0dropshadow"/>
<feBlend mode="normal" in="SourceGraphic" in2="0dropshadow" result="shape"/>
</filter>
</defs>
</svg>
