<svg width="36" height="26" viewBox="0 0 36 26" fill="none" xmlns="http://www.w3.org/2000/svg" xmlns:xlink="http://www.w3.org/1999/xlink">
<path d="M1.25,1.917L1.25,0.729C0.902,0.729 0.568,0.854 0.322,1.077C0.076,1.3 -0.063,1.602 -0.063,1.917L1.25,1.917ZM32.75,1.917L34.063,1.917C34.063,1.602 33.924,1.3 33.678,1.077C33.432,0.854 33.098,0.729 32.75,0.729L32.75,1.917ZM1.25,3.104L32.75,3.104L32.75,0.729L1.25,0.729L1.25,3.104ZM31.438,1.917L31.438,20.917L34.063,20.917L34.063,1.917L31.438,1.917ZM29.25,22.896L4.75,22.896L4.75,25.271L29.25,25.271L29.25,22.896ZM2.563,20.917L2.563,1.917L-0.063,1.917L-0.063,20.917L2.563,20.917ZM4.75,22.896C3.543,22.896 2.563,22.009 2.563,20.917L-0.063,20.917C-0.063,22.071 0.445,23.179 1.347,23.995C2.25,24.812 3.474,25.271 4.75,25.271L4.75,22.896ZM31.438,20.917C31.438,22.009 30.457,22.896 29.25,22.896L29.25,25.271C30.526,25.271 31.751,24.812 32.653,23.995C33.555,23.179 34.063,22.071 34.063,20.917L31.438,20.917Z" fill="#294C90"/>
<path d="M2.256,0.804C1.642,0.248 0.694,0.296 0.138,0.91C-0.418,1.524 -0.371,2.473 0.244,3.029L2.256,0.804ZM17,16.167L15.994,17.279C16.565,17.796 17.435,17.796 18.006,17.279L17,16.167ZM33.756,3.029C34.371,2.473 34.418,1.524 33.862,0.91C33.306,0.296 32.358,0.248 31.744,0.804L33.756,3.029ZM0.244,3.029L15.994,17.279L18.006,15.054L2.256,0.804L0.244,3.029ZM18.006,17.279L33.756,3.029L31.744,0.804L15.994,15.054L18.006,17.279Z" fill="#294C90"/>
</svg>
