<svg width="44" height="42" viewBox="0 0 44 42" fill="none" xmlns="http://www.w3.org/2000/svg" xmlns:xlink="http://www.w3.org/1999/xlink">
<path d="M20.292,12.046L21.603,12.776L21.603,12.775L20.292,12.046ZM23.708,12.046L22.397,12.775L22.398,12.776L23.708,12.046ZM23.904,12.398L25.215,11.668L25.215,11.668L23.904,12.398ZM24.396,13.106L23.487,14.299L23.494,14.304L24.396,13.106ZM25.196,13.376L25.534,11.915L25.524,11.912L25.196,13.376ZM25.576,13.464L25.238,14.925L25.245,14.927L25.576,13.464ZM27.966,14.528L29.398,14.083L29.398,14.081L27.966,14.528ZM26.632,16.858L25.492,15.883L25.492,15.883L26.632,16.858ZM26.372,17.162L27.511,18.138L27.512,18.137L26.372,17.162ZM25.878,18.746L24.385,18.887L24.385,18.893L25.878,18.746ZM25.918,19.152L27.411,19.007L27.411,19.005L25.918,19.152ZM25.688,21.856L26.593,23.052L26.596,23.05L25.688,21.856ZM23.154,21.25L22.526,22.612L22.527,22.613L23.154,21.25ZM22.798,21.086L23.426,19.724L23.421,19.722L22.798,21.086ZM21.202,21.086L20.579,19.722L20.574,19.724L21.202,21.086ZM20.846,21.25L20.218,19.888L20.217,19.888L20.846,21.25ZM18.082,19.152L16.589,19.005L16.589,19.007L18.082,19.152ZM18.122,18.746L19.615,18.893L19.615,18.887L18.122,18.746ZM18.122,17.87L19.556,17.429L19.555,17.425L18.122,17.87ZM17.628,17.162L16.488,18.137L16.489,18.138L17.628,17.162ZM17.368,16.858L18.508,15.883L18.508,15.883L17.368,16.858ZM16.034,14.528L14.602,14.081L14.602,14.083L16.034,14.528ZM18.424,13.464L18.755,14.927L18.762,14.925L18.424,13.464ZM18.804,13.376L18.476,11.912L18.466,11.915L18.804,13.376ZM19.604,13.106L18.695,11.913L18.693,11.914L19.604,13.106ZM20.096,12.398L18.786,11.668L18.785,11.668L20.096,12.398ZM22,30.136L23.079,29.094L22,27.977L20.921,29.094L22,30.136ZM14.458,37.946L13.379,36.904L13.378,36.905L14.458,37.946ZM12.378,39.816L11.8,38.432L11.794,38.435L12.378,39.816ZM9.632,38.92L10.935,38.176L10.934,38.176L9.632,38.92ZM9.168,36.22L10.661,36.075L10.661,36.071L9.168,36.22ZM8.912,34.572L7.496,35.066L7.499,35.075L8.912,34.572ZM7.242,32.844L7.784,31.445L7.784,31.445L7.242,32.844ZM5.652,32.58L5.494,34.072L5.494,34.072L5.652,32.58ZM3.042,32.098L2.258,33.377L2.263,33.38L3.042,32.098ZM2.176,29.254L0.782,28.701L0.781,28.703L2.176,29.254ZM3.984,27.102L5.063,28.144L5.063,28.144L3.984,27.102ZM29.542,37.946L30.622,36.905L30.621,36.904L29.542,37.946ZM31.622,39.816L32.207,38.435L32.2,38.432L31.622,39.816ZM34.368,38.92L33.066,38.176L33.065,38.176L34.368,38.92ZM34.832,36.22L33.339,36.071L33.339,36.073L34.832,36.22ZM35.088,34.572L33.676,34.066L33.675,34.069L35.088,34.572ZM36.758,32.844L37.295,34.245L37.3,34.243L36.758,32.844ZM38.348,32.58L38.506,34.072L38.507,34.072L38.348,32.58ZM40.958,32.098L41.737,33.38L41.742,33.377L40.958,32.098ZM41.824,29.254L43.219,28.703L43.218,28.701L41.824,29.254ZM40.016,27.102L38.937,28.144L38.937,28.144L40.016,27.102ZM21.603,12.775C21.796,12.429 21.951,12.149 22.091,11.914C22.231,11.676 22.332,11.523 22.409,11.423C22.489,11.318 22.497,11.332 22.434,11.375C22.343,11.435 22.188,11.5 22,11.5L22,8.5C20.998,8.5 20.372,9.148 20.027,9.599C19.683,10.048 19.337,10.677 18.981,11.317L21.603,12.775ZM22,11.5C21.813,11.5 21.657,11.435 21.566,11.375C21.503,11.332 21.511,11.318 21.591,11.423C21.668,11.523 21.769,11.676 21.909,11.914C22.049,12.149 22.205,12.429 22.397,12.775L25.019,11.317C24.663,10.677 24.317,10.048 23.973,9.599C23.628,9.148 23.002,8.5 22,8.5L22,11.5ZM22.398,12.776L22.594,13.128L25.215,11.668L25.019,11.316L22.398,12.776ZM22.593,13.128C22.748,13.404 23.012,13.937 23.487,14.299L25.305,11.913C25.398,11.984 25.437,12.048 25.416,12.017C25.404,11.999 25.383,11.965 25.347,11.903C25.311,11.841 25.27,11.768 25.215,11.668L22.593,13.128ZM23.494,14.304C23.981,14.671 24.57,14.773 24.868,14.84L25.524,11.912C25.416,11.888 25.337,11.87 25.271,11.854C25.205,11.838 25.17,11.829 25.153,11.823C25.137,11.818 25.151,11.821 25.18,11.836C25.214,11.851 25.255,11.875 25.298,11.908L23.494,14.304ZM24.858,14.837L25.238,14.925L25.914,12.003L25.534,11.915L24.858,14.837ZM25.245,14.927C25.62,15.012 25.921,15.08 26.176,15.145C26.434,15.211 26.6,15.263 26.71,15.306C26.822,15.35 26.809,15.36 26.751,15.311C26.67,15.242 26.581,15.124 26.534,14.975L29.398,14.081C29.108,13.154 28.359,12.731 27.807,12.514C27.284,12.308 26.594,12.156 25.907,12.001L25.245,14.927ZM26.534,14.973C26.426,14.627 26.62,14.432 26.473,14.665C26.316,14.914 26.028,15.257 25.492,15.883L27.772,17.833C28.242,17.283 28.709,16.744 29.012,16.264C29.325,15.767 29.682,14.995 29.398,14.083L26.534,14.973ZM25.492,15.883L25.232,16.187L27.512,18.137L27.772,17.833L25.492,15.883ZM25.233,16.186C25.033,16.419 24.622,16.853 24.444,17.429L27.312,18.311C27.297,18.36 27.278,18.401 27.262,18.43C27.248,18.456 27.241,18.464 27.253,18.448C27.266,18.43 27.291,18.399 27.336,18.344C27.383,18.288 27.437,18.225 27.511,18.138L25.233,16.186ZM24.444,17.429C24.272,17.99 24.355,18.569 24.385,18.887L27.371,18.605C27.361,18.49 27.352,18.404 27.347,18.33C27.341,18.257 27.339,18.214 27.338,18.189C27.337,18.146 27.343,18.211 27.312,18.311L24.444,17.429ZM24.385,18.893L24.425,19.299L27.411,19.005L27.371,18.599L24.385,18.893ZM24.425,19.297C24.506,20.129 24.547,20.591 24.533,20.896C24.52,21.2 24.464,20.902 24.781,20.662L26.596,23.05C27.37,22.462 27.505,21.597 27.53,21.028C27.555,20.461 27.482,19.745 27.411,19.007L24.425,19.297ZM24.783,20.66C24.924,20.553 25.083,20.507 25.201,20.5C25.287,20.495 25.297,20.514 25.18,20.48C25.067,20.448 24.904,20.388 24.658,20.283C24.414,20.179 24.132,20.049 23.781,19.887L22.527,22.613C23.17,22.909 23.813,23.209 24.354,23.364C24.913,23.524 25.794,23.657 26.593,23.052L24.783,20.66ZM23.782,19.888L23.426,19.724L22.17,22.448L22.526,22.612L23.782,19.888ZM23.421,19.722C23.155,19.6 22.612,19.316 22,19.316L22,22.316C21.94,22.316 21.888,22.309 21.85,22.301C21.816,22.294 21.802,22.288 21.819,22.294C21.837,22.3 21.871,22.314 21.934,22.342C21.998,22.37 22.073,22.404 22.175,22.45L23.421,19.722ZM22,19.316C21.388,19.316 20.845,19.6 20.579,19.722L21.825,22.45C21.927,22.404 22.002,22.37 22.066,22.342C22.129,22.314 22.164,22.3 22.182,22.294C22.198,22.288 22.184,22.294 22.15,22.301C22.112,22.309 22.06,22.316 22,22.316L22,19.316ZM20.574,19.724L20.218,19.888L21.474,22.612L21.83,22.448L20.574,19.724ZM20.217,19.888C19.867,20.05 19.585,20.18 19.342,20.284C19.096,20.389 18.933,20.448 18.821,20.48C18.704,20.514 18.715,20.495 18.8,20.501C18.918,20.508 19.077,20.554 19.217,20.66L17.407,23.052C18.205,23.656 19.085,23.525 19.645,23.365C20.187,23.21 20.83,22.909 21.475,22.612L20.217,19.888ZM19.217,20.66C19.535,20.9 19.479,21.2 19.466,20.897C19.453,20.592 19.494,20.131 19.575,19.297L16.589,19.007C16.518,19.743 16.444,20.46 16.469,21.028C16.494,21.597 16.629,22.464 17.407,23.052L19.217,20.66ZM19.575,19.299L19.615,18.893L16.629,18.599L16.589,19.005L19.575,19.299ZM19.615,18.887C19.645,18.569 19.728,17.99 19.556,17.429L16.688,18.311C16.657,18.211 16.663,18.146 16.662,18.189C16.662,18.214 16.659,18.257 16.654,18.33C16.648,18.404 16.64,18.49 16.629,18.605L19.615,18.887ZM19.555,17.425C19.377,16.855 18.971,16.424 18.767,16.186L16.489,18.138C16.562,18.224 16.617,18.287 16.663,18.342C16.708,18.397 16.732,18.429 16.746,18.447C16.767,18.477 16.723,18.422 16.69,18.315L19.555,17.425ZM18.768,16.187L18.508,15.883L16.228,17.833L16.488,18.137L18.768,16.187ZM18.508,15.883C17.972,15.257 17.684,14.914 17.527,14.665C17.381,14.432 17.574,14.627 17.466,14.973L14.602,14.083C14.318,14.995 14.676,15.767 14.989,16.264C15.291,16.744 15.758,17.283 16.228,17.833L18.508,15.883ZM17.466,14.975C17.419,15.124 17.33,15.242 17.249,15.311C17.191,15.36 17.178,15.35 17.29,15.306C17.4,15.263 17.566,15.211 17.824,15.145C18.079,15.08 18.38,15.012 18.755,14.927L18.093,12.001C17.406,12.156 16.716,12.308 16.193,12.514C15.641,12.731 14.892,13.154 14.602,14.081L17.466,14.975ZM18.762,14.925L19.142,14.837L18.466,11.915L18.086,12.003L18.762,14.925ZM19.132,14.84C19.417,14.776 20.022,14.675 20.515,14.298L18.693,11.914C18.738,11.88 18.782,11.854 18.818,11.837C18.85,11.822 18.865,11.818 18.85,11.823C18.833,11.828 18.799,11.838 18.732,11.854C18.664,11.87 18.586,11.888 18.476,11.912L19.132,14.84ZM20.513,14.299C20.988,13.937 21.253,13.404 21.407,13.128L18.785,11.668C18.73,11.768 18.689,11.841 18.653,11.903C18.617,11.965 18.596,11.999 18.584,12.017C18.563,12.048 18.602,11.984 18.695,11.913L20.513,14.299ZM21.407,13.128L21.603,12.776L18.982,11.316L18.786,11.668L21.407,13.128ZM20.921,29.094L13.379,36.904L15.537,38.988L23.079,31.178L20.921,29.094ZM13.378,36.905C12.826,37.477 12.455,37.861 12.166,38.129C11.862,38.41 11.773,38.443 11.8,38.432L12.956,41.2C13.443,40.997 13.854,40.655 14.205,40.329C14.571,39.99 15.01,39.535 15.538,38.987L13.378,36.905ZM11.794,38.435C11.426,38.59 11.092,38.451 10.935,38.176L8.329,39.664C9.268,41.309 11.25,41.922 12.963,41.197L11.794,38.435ZM10.934,38.176C10.958,38.217 10.91,38.153 10.848,37.751C10.788,37.371 10.737,36.852 10.661,36.075L7.675,36.365C7.747,37.108 7.808,37.729 7.883,38.214C7.956,38.677 8.066,39.203 8.33,39.664L10.934,38.176ZM10.661,36.071C10.583,35.297 10.53,34.644 10.325,34.069L7.499,35.075C7.55,35.22 7.581,35.423 7.675,36.369L10.661,36.071ZM10.328,34.078C10.12,33.481 9.785,32.937 9.346,32.482L7.188,34.567C7.326,34.709 7.431,34.879 7.496,35.066L10.328,34.078ZM9.346,32.482C8.906,32.028 8.374,31.674 7.784,31.445L6.7,34.243C6.884,34.314 7.051,34.425 7.188,34.567L9.346,32.482ZM7.784,31.445C7.205,31.221 6.543,31.166 5.81,31.088L5.494,34.072C6.421,34.17 6.587,34.199 6.7,34.243L7.784,31.445ZM5.811,31.088C5.057,31.008 4.56,30.955 4.197,30.894C3.814,30.83 3.768,30.784 3.821,30.816L2.263,33.38C2.724,33.66 3.249,33.777 3.702,33.853C4.175,33.932 4.779,33.996 5.494,34.072L5.811,31.088ZM3.826,30.819C3.579,30.667 3.387,30.271 3.571,29.805L0.781,28.703C0.113,30.393 0.653,32.393 2.258,33.377L3.826,30.819ZM3.57,29.807C3.567,29.816 3.608,29.715 3.88,29.401C4.14,29.101 4.511,28.715 5.063,28.144L2.905,26.06C2.377,26.607 1.938,27.06 1.612,27.438C1.296,27.802 0.973,28.218 0.782,28.701L3.57,29.807ZM5.063,28.144L9.991,23.042L7.833,20.958L2.905,26.06L5.063,28.144ZM20.921,31.178L28.463,38.988L30.621,36.904L23.079,29.094L20.921,31.178ZM28.462,38.987C28.99,39.535 29.429,39.99 29.795,40.329C30.146,40.655 30.557,40.997 31.044,41.2L32.2,38.432C32.227,38.443 32.138,38.41 31.834,38.129C31.545,37.861 31.174,37.477 30.622,36.905L28.462,38.987ZM31.038,41.197C32.75,41.922 34.732,41.309 35.671,39.664L33.065,38.176C32.908,38.451 32.574,38.59 32.207,38.435L31.038,41.197ZM35.67,39.664C35.935,39.202 36.044,38.675 36.116,38.213C36.191,37.729 36.252,37.109 36.325,36.367L33.339,36.073C33.262,36.851 33.211,37.371 33.152,37.752C33.089,38.155 33.041,38.218 33.066,38.176L35.67,39.664ZM36.325,36.369C36.419,35.423 36.45,35.22 36.501,35.075L33.675,34.069C33.47,34.644 33.417,35.297 33.34,36.071L36.325,36.369ZM36.5,35.078C36.645,34.672 36.938,34.381 37.295,34.245L36.222,31.443C35.022,31.903 34.107,32.864 33.676,34.066L36.5,35.078ZM37.3,34.243C37.413,34.199 37.579,34.17 38.506,34.072L38.19,31.088C37.457,31.166 36.795,31.221 36.216,31.445L37.3,34.243ZM38.507,34.072C39.221,33.996 39.825,33.932 40.298,33.853C40.751,33.777 41.276,33.66 41.737,33.38L40.179,30.816C40.232,30.784 40.186,30.83 39.803,30.894C39.44,30.955 38.943,31.008 38.19,31.088L38.507,34.072ZM41.742,33.377C43.347,32.393 43.887,30.393 43.219,28.703L40.429,29.805C40.613,30.271 40.421,30.667 40.174,30.819L41.742,33.377ZM43.218,28.701C43.027,28.218 42.704,27.802 42.389,27.438C42.062,27.06 41.623,26.607 41.095,26.06L38.937,28.144C39.489,28.715 39.86,29.101 40.121,29.401C40.392,29.715 40.433,29.816 40.43,29.807L43.218,28.701ZM41.095,26.06L36.167,20.958L34.009,23.042L38.937,28.144L41.095,26.06Z" fill="#294C90"/>
<path d="M10.393,11.351C10.7,10.582 10.327,9.709 9.557,9.401C8.788,9.093 7.915,9.467 7.607,10.236L10.393,11.351ZM16.237,1.607C15.467,1.915 15.094,2.788 15.401,3.557C15.709,4.326 16.582,4.7 17.351,4.392L16.237,1.607ZM7.607,10.236C6.281,13.551 6.139,17.222 7.205,20.629L10.068,19.732C9.208,16.985 9.323,14.024 10.393,11.351L7.607,10.236ZM7.205,20.629C8.272,24.036 10.482,26.97 13.463,28.936L15.115,26.432C12.711,24.846 10.929,22.48 10.068,19.732L7.205,20.629ZM13.463,28.936C16.443,30.902 20.01,31.778 23.562,31.418L23.259,28.433C20.395,28.724 17.518,28.017 15.115,26.432L13.463,28.936ZM23.562,31.418C27.114,31.057 30.433,29.482 32.957,26.957L30.836,24.836C28.8,26.872 26.124,28.142 23.259,28.433L23.562,31.418ZM32.957,26.957C35.482,24.433 37.057,21.114 37.418,17.562L34.433,17.259C34.143,20.124 32.872,22.8 30.836,24.836L32.957,26.957ZM37.418,17.562C37.778,14.01 36.902,10.443 34.936,7.463L32.432,9.114C34.017,11.518 34.724,14.395 34.433,17.259L37.418,17.562ZM34.936,7.463C32.97,4.482 30.036,2.272 26.629,1.205L25.732,4.068C28.48,4.929 30.846,6.711 32.432,9.114L34.936,7.463ZM26.629,1.205C23.222,0.138 19.551,0.28 16.237,1.607L17.351,4.392C20.024,3.322 22.985,3.208 25.732,4.068L26.629,1.205Z" fill="#294C90"/>
</svg>
