<svg width="70" height="86" viewBox="0 0 70 86" fill="none" xmlns="http://www.w3.org/2000/svg" xmlns:xlink="http://www.w3.org/1999/xlink">
<path d="M52.04,0.043C51.858,-0.161 45.273,0.124 39.543,6.343C33.814,12.556 34.695,19.683 34.824,19.866C34.953,20.049 42.994,20.334 48.127,13.104C53.26,5.875 52.223,0.253 52.04,0.043L52.04,0.043ZM69.853,63.108C69.595,62.592 57.356,56.475 58.496,44.715C59.635,32.949 67.499,29.724 67.622,29.374C67.746,29.025 64.414,25.128 60.882,23.156C58.289,21.765 55.42,20.968 52.481,20.823C51.901,20.807 49.885,20.312 45.741,21.446C43.01,22.193 36.856,24.612 35.163,24.709C33.464,24.806 28.412,21.903 22.978,21.135C19.5,20.463 15.813,21.839 13.174,22.898C10.54,23.951 5.53,26.95 2.026,34.921C-1.479,42.887 0.354,55.508 1.666,59.431C2.977,63.35 5.025,69.773 8.508,74.46C11.604,79.749 15.711,83.42 17.425,84.667C19.14,85.914 23.977,86.742 27.331,85.027C30.03,83.372 34.899,82.42 36.824,82.49C38.743,82.56 42.527,83.318 46.402,85.387C49.471,86.446 52.374,86.005 55.281,84.823C58.189,83.635 62.398,79.131 67.311,69.999C69.176,65.752 70.025,63.457 69.853,63.108L69.853,63.108Z" fill="#000000"/>
<path d="M52.04,0.043C51.858,-0.161 45.273,0.124 39.543,6.343C33.814,12.556 34.695,19.683 34.824,19.866C34.953,20.049 42.994,20.334 48.127,13.104C53.26,5.875 52.223,0.253 52.04,0.043L52.04,0.043ZM69.853,63.108C69.595,62.592 57.356,56.475 58.496,44.715C59.635,32.949 67.499,29.724 67.622,29.374C67.746,29.025 64.414,25.128 60.882,23.156C58.289,21.765 55.42,20.968 52.481,20.823C51.901,20.807 49.885,20.312 45.741,21.446C43.01,22.193 36.856,24.612 35.163,24.709C33.464,24.806 28.412,21.903 22.978,21.135C19.5,20.463 15.813,21.839 13.174,22.898C10.54,23.951 5.53,26.95 2.026,34.921C-1.479,42.887 0.354,55.508 1.666,59.431C2.977,63.35 5.025,69.773 8.508,74.46C11.604,79.749 15.711,83.42 17.425,84.667C19.14,85.914 23.977,86.742 27.331,85.027C30.03,83.372 34.899,82.42 36.824,82.49C38.743,82.56 42.527,83.318 46.402,85.387C49.471,86.446 52.374,86.005 55.281,84.823C58.189,83.635 62.398,79.131 67.311,69.999C69.176,65.752 70.025,63.457 69.853,63.108L69.853,63.108Z" fill="#000000"/>
</svg>
