<svg width="40" height="42" viewBox="0 0 40 42" fill="none" xmlns="http://www.w3.org/2000/svg" xmlns:xlink="http://www.w3.org/1999/xlink">
<path d="M26.58,13.7L17.12,23.18L13.42,19.46C13.043,19.083 12.533,18.872 12,18.872C11.467,18.872 10.957,19.083 10.58,19.46C10.203,19.837 9.992,20.347 9.992,20.88C9.992,21.144 10.044,21.405 10.145,21.648C10.246,21.892 10.394,22.114 10.58,22.3L15.7,27.42C15.886,27.607 16.107,27.756 16.351,27.858C16.595,27.959 16.856,28.012 17.12,28.012C17.384,28.012 17.645,27.959 17.889,27.858C18.133,27.756 18.354,27.607 18.54,27.42L29.42,16.54C29.606,16.354 29.754,16.132 29.855,15.889C29.956,15.645 30.008,15.384 30.008,15.12C30.008,14.856 29.956,14.595 29.855,14.351C29.754,14.108 29.606,13.886 29.42,13.7C29.233,13.514 29.012,13.366 28.768,13.265C28.525,13.164 28.264,13.112 28,13.112C27.736,13.112 27.475,13.164 27.231,13.265C26.988,13.366 26.766,13.514 26.58,13.7ZM20,0C17.374,0 14.773,0.517 12.346,1.522C9.92,2.527 7.715,4.001 5.858,5.858C2.107,9.609 0,14.696 0,20C-0.018,24.618 1.582,29.097 4.52,32.66L0.52,36.66C0.242,36.941 0.054,37.298 -0.02,37.686C-0.095,38.074 -0.053,38.476 0.1,38.84C0.266,39.2 0.535,39.502 0.874,39.709C1.212,39.915 1.604,40.017 2,40L20,40C25.304,40 30.391,37.893 34.142,34.142C37.893,30.391 40,25.304 40,20C40,14.696 37.893,9.609 34.142,5.858C30.391,2.107 25.304,0 20,0ZM20,36L6.82,36L8.68,34.14C9.052,33.765 9.262,33.258 9.262,32.73C9.262,32.202 9.052,31.695 8.68,31.32C6.061,28.704 4.43,25.261 4.065,21.578C3.7,17.894 4.624,14.198 6.678,11.119C8.733,8.04 11.792,5.769 15.333,4.692C18.874,3.615 22.68,3.8 26.1,5.214C29.521,6.628 32.346,9.185 34.093,12.448C35.84,15.711 36.402,19.479 35.682,23.11C34.963,26.741 33.007,30.01 30.147,32.36C27.288,34.711 23.701,35.997 20,36Z" fill="#85B6FF"/>
</svg>
