<svg width="32" height="42" viewBox="0 0 32 42" fill="none" xmlns="http://www.w3.org/2000/svg" xmlns:xlink="http://www.w3.org/1999/xlink">
<path d="M16,32C17.061,32 18.078,31.579 18.828,30.828C19.579,30.078 20,29.061 20,28C20,26.939 19.579,25.922 18.828,25.172C18.078,24.421 17.061,24 16,24C14.939,24 13.922,24.421 13.172,25.172C12.421,25.922 12,26.939 12,28C12,29.061 12.421,30.078 13.172,30.828C13.922,31.579 14.939,32 16,32ZM28,14C29.061,14 30.078,14.421 30.828,15.172C31.579,15.922 32,16.939 32,18L32,38C32,39.061 31.579,40.078 30.828,40.828C30.078,41.579 29.061,42 28,42L4,42C2.939,42 1.922,41.579 1.172,40.828C0.421,40.078 0,39.061 0,38L0,18C0,16.939 0.421,15.922 1.172,15.172C1.922,14.421 2.939,14 4,14L6,14L6,10C6,7.348 7.054,4.804 8.929,2.929C10.804,1.054 13.348,0 16,0C17.313,0 18.614,0.259 19.827,0.761C21.04,1.264 22.142,2 23.071,2.929C24,3.858 24.736,4.96 25.239,6.173C25.741,7.386 26,8.687 26,10L26,14L28,14ZM16,4C14.409,4 12.883,4.632 11.757,5.757C10.632,6.883 10,8.409 10,10L10,14L22,14L22,10C22,8.409 21.368,6.883 20.243,5.757C19.117,4.632 17.591,4 16,4Z" fill="#2E365D"/>
</svg>
