<svg width="60" height="40" viewBox="0 0 60 40" fill="none" xmlns="http://www.w3.org/2000/svg" xmlns:xlink="http://www.w3.org/1999/xlink">
<path d="M-0.25,19.667C-0.25,21.508 1.242,23 3.083,23L3.083,23C4.924,23 6.417,21.508 6.417,19.667L6.417,18.333C6.417,16.492 4.924,15 3.083,15L3.083,15C1.242,15 -0.25,16.492 -0.25,18.333L-0.25,19.667ZM-0.25,35.667C-0.25,37.508 1.242,39 3.083,39L3.083,39C4.924,39 6.417,37.508 6.417,35.667L6.417,34.333C6.417,32.492 4.924,31 3.083,31L3.083,31C1.242,31 -0.25,32.492 -0.25,34.333L-0.25,35.667ZM-0.25,3.667C-0.25,5.508 1.242,7 3.083,7L3.083,7C4.924,7 6.417,5.508 6.417,3.667L6.417,2.333C6.417,0.492 4.924,-1 3.083,-1L3.083,-1C1.242,-1 -0.25,0.492 -0.25,2.333L-0.25,3.667ZM13.083,19C13.083,21.209 14.874,23 17.083,23L55.75,23C57.959,23 59.75,21.209 59.75,19L59.75,19C59.75,16.791 57.959,15 55.75,15L17.083,15C14.874,15 13.083,16.791 13.083,19L13.083,19ZM13.083,35C13.083,37.209 14.874,39 17.083,39L55.75,39C57.959,39 59.75,37.209 59.75,35L59.75,35C59.75,32.791 57.959,31 55.75,31L17.083,31C14.874,31 13.083,32.791 13.083,35L13.083,35ZM17.083,-1C14.874,-1 13.083,0.791 13.083,3L13.083,3C13.083,5.209 14.874,7 17.083,7L55.75,7C57.959,7 59.75,5.209 59.75,3L59.75,3C59.75,0.791 57.959,-1 55.75,-1L17.083,-1Z" fill="#999999"/>
</svg>
