<svg width="40" height="40" viewBox="0 0 40 40" fill="none" xmlns="http://www.w3.org/2000/svg" xmlns:xlink="http://www.w3.org/1999/xlink">
<path d="M13.16,30.5L15,22.72L9,17.56L16.9,16.82L20,9.6L23.1,16.9L31,17.56L25,22.72L26.84,30.5L20,26.38L13.16,30.5ZM20,0C22.626,0 25.227,0.517 27.654,1.522C30.08,2.528 32.285,4.001 34.142,5.858C35.999,7.715 37.472,9.92 38.478,12.346C39.483,14.773 40,17.374 40,20C40,25.304 37.893,30.391 34.142,34.142C30.391,37.893 25.304,40 20,40C17.374,40 14.773,39.483 12.346,38.478C9.92,37.472 7.715,35.999 5.858,34.142C2.107,30.391 0,25.304 0,20C0,14.696 2.107,9.609 5.858,5.858C9.609,2.107 14.696,0 20,0ZM20,4C15.757,4 11.687,5.686 8.686,8.686C5.686,11.687 4,15.757 4,20C4,24.243 5.686,28.313 8.686,31.314C11.687,34.314 15.757,36 20,36C24.243,36 28.313,34.314 31.314,31.314C34.314,28.313 36,24.243 36,20C36,15.757 34.314,11.687 31.314,8.686C28.313,5.686 24.243,4 20,4Z" fill="#294C90"/>
</svg>
