<svg width="40" height="42" viewBox="0 0 40 42" fill="none" xmlns="http://www.w3.org/2000/svg" xmlns:xlink="http://www.w3.org/1999/xlink">
<path d="M29.104,40.266C26.224,40.16 18.062,39.032 9.514,30.486C0.968,21.938 -0.158,13.778 -0.266,10.896C-0.426,6.504 2.938,2.238 6.824,0.572C7.292,0.37 7.804,0.293 8.311,0.349C8.818,0.405 9.301,0.591 9.714,0.89C12.914,3.222 15.122,6.75 17.018,9.524C17.435,10.133 17.614,10.875 17.519,11.608C17.425,12.34 17.064,13.012 16.506,13.496L12.604,16.394C12.415,16.53 12.283,16.73 12.231,16.957C12.178,17.183 12.21,17.421 12.32,17.626C13.204,19.232 14.776,21.624 16.576,23.424C18.378,25.224 20.882,26.9 22.6,27.884C22.815,28.005 23.069,28.039 23.309,27.979C23.548,27.918 23.756,27.769 23.888,27.56L26.428,23.694C26.895,23.074 27.584,22.658 28.35,22.534C29.117,22.411 29.902,22.588 30.54,23.03C33.354,24.978 36.638,27.148 39.042,30.226C39.365,30.642 39.571,31.137 39.637,31.659C39.704,32.182 39.629,32.713 39.42,33.196C37.746,37.102 33.51,40.428 29.104,40.266Z" clip-rule="evenodd" fill-rule="evenodd" fill="#394064"/>
</svg>
