<svg width="48" height="44" viewBox="0 0 48 44" fill="none" xmlns="http://www.w3.org/2000/svg" xmlns:xlink="http://www.w3.org/1999/xlink">
<path d="M23.896,0.002C20.786,-0.039 17.698,0.499 14.812,1.586C11.926,2.673 9.3,4.287 7.085,6.334C4.87,8.381 3.111,10.82 1.911,13.509C0.71,16.199 0.092,19.085 0.092,22C0.092,24.915 0.71,27.801 1.911,30.491C3.111,33.18 4.87,35.619 7.085,37.666C9.3,39.713 11.926,41.327 14.812,42.414C17.698,43.501 20.786,44.039 23.896,43.998C30.063,43.916 35.948,41.562 40.278,37.446C44.608,33.329 47.036,27.781 47.036,22C47.036,16.219 44.608,10.671 40.278,6.554C35.948,2.438 30.063,0.084 23.896,0.002ZM5.121,22.002C5.081,19.668 5.538,17.35 6.463,15.183C7.389,13.015 8.766,11.043 10.513,9.379C12.26,7.715 14.343,6.394 16.64,5.492C18.937,4.59 21.403,4.126 23.894,4.126C26.384,4.126 28.85,4.59 31.147,5.492C33.445,6.394 35.527,7.715 37.275,9.379C39.022,11.043 40.398,13.015 41.324,15.183C42.25,17.35 42.706,19.668 42.667,22.002C42.589,26.621 40.577,31.025 37.065,34.266C33.552,37.506 28.822,39.322 23.894,39.322C18.966,39.322 14.235,37.506 10.723,34.266C7.211,31.025 5.198,26.621 5.121,22.002ZM33.786,14.951C34.005,15.155 34.178,15.398 34.297,15.665C34.415,15.933 34.476,16.219 34.476,16.509C34.476,16.798 34.415,17.085 34.297,17.352C34.178,17.62 34.005,17.863 33.786,18.067L23.22,27.971C23.002,28.176 22.742,28.339 22.457,28.45C22.172,28.56 21.866,28.618 21.557,28.618C21.248,28.618 20.943,28.56 20.657,28.45C20.372,28.339 20.113,28.176 19.895,27.971L15.199,23.569C14.758,23.156 14.51,22.595 14.51,22.011C14.51,21.427 14.758,20.866 15.199,20.453C15.64,20.04 16.238,19.807 16.861,19.807C17.485,19.807 18.083,20.04 18.524,20.453L21.557,23.301L30.461,14.951C30.679,14.746 30.939,14.583 31.224,14.472C31.509,14.361 31.815,14.304 32.124,14.304C32.433,14.304 32.738,14.361 33.024,14.472C33.309,14.583 33.568,14.746 33.786,14.951Z" fill="#294C90"/>
</svg>
