<svg width="32" height="32" viewBox="0 0 32 32" fill="none" xmlns="http://www.w3.org/2000/svg" xmlns:xlink="http://www.w3.org/1999/xlink">
<path d="M2.962,32C1.964,32 1.11,31.652 0.4,30.956C-0.31,30.261 -0.666,29.423 -0.667,28.444L-0.667,3.556C-0.667,2.578 -0.311,1.741 0.4,1.045C1.111,0.35 1.965,0.001 2.962,0L15.661,0L15.661,3.556L2.962,3.556L2.962,28.444L15.661,28.444L15.661,32L2.962,32ZM22.918,24.889L20.424,22.311L25.05,17.778L10.219,17.778L10.219,14.222L25.05,14.222L20.424,9.689L22.918,7.111L31.99,16L22.918,24.889Z" fill="#D20A0A"/>
</svg>
