<svg width="48" height="42" viewBox="0 0 48 42" fill="none" xmlns="http://www.w3.org/2000/svg" xmlns:xlink="http://www.w3.org/1999/xlink">
<path d="M24,0.781L23.124,1.164L3.126,9.75L2,10.242L2,13.25L46,13.25L46,10.242L44.874,9.75L24.874,1.164L24,0.781ZM24,4.719L35.75,9.75L12.25,9.75L24,4.719ZM6,15L6,32.5L4,32.5L4,36L44,36L44,32.5L42,32.5L42,15L38,15L38,32.5L34,32.5L34,15L30,15L30,32.5L26,32.5L26,15L22,15L22,32.5L18,32.5L18,15L14,15L14,32.5L10,32.5L10,15L6,15ZM0,37.75L0,41.25L48,41.25L48,37.75L0,37.75Z" fill="#294C90"/>
</svg>
