<svg width="38" height="30" viewBox="0 0 38 30" fill="none" xmlns="http://www.w3.org/2000/svg" xmlns:xlink="http://www.w3.org/1999/xlink">
<path d="M19.605,0.733C20.153,1.202 20.461,1.838 20.461,2.502C20.461,3.166 20.153,3.802 19.605,4.271L7.056,15.015L19.605,25.759C20.138,26.231 20.432,26.863 20.426,27.519C20.419,28.175 20.111,28.803 19.569,29.267C19.028,29.731 18.294,29.994 17.528,30C16.761,30.006 16.023,29.753 15.472,29.297L0.856,16.784C0.308,16.315 0,15.679 0,15.015C0,14.351 0.308,13.715 0.856,13.246L15.472,0.733C16.02,0.264 16.763,0 17.538,0C18.314,0 19.057,0.264 19.605,0.733ZM37.144,0.733C37.692,1.202 38,1.838 38,2.502C38,3.166 37.692,3.802 37.144,4.271L24.595,15.015L37.144,25.759C37.677,26.231 37.971,26.863 37.965,27.519C37.958,28.175 37.651,28.803 37.109,29.267C36.567,29.731 35.833,29.994 35.067,30C34.3,30.006 33.562,29.753 33.011,29.297L18.395,16.784C17.847,16.315 17.539,15.679 17.539,15.015C17.539,14.351 17.847,13.715 18.395,13.246L33.011,0.733C33.559,0.264 34.302,0 35.077,0C35.853,0 36.596,0.264 37.144,0.733Z" clip-rule="evenodd" fill-rule="evenodd" transform="rotate(360 19 15)" fill="#17A02D"/>
</svg>
