<svg width="22" height="28" viewBox="0 0 22 28" fill="none" xmlns="http://www.w3.org/2000/svg" xmlns:xlink="http://www.w3.org/1999/xlink">
<g filter="url(#filter450_225)">
<path d="M11.35,0.684C11.668,1.122 11.846,1.716 11.846,2.335C11.846,2.955 11.668,3.549 11.35,3.987L4.085,14.014L11.35,24.042C11.659,24.482 11.829,25.072 11.825,25.685C11.821,26.297 11.643,26.883 11.33,27.316C11.016,27.749 10.591,27.995 10.148,28C9.704,28.005 9.276,27.77 8.957,27.344L0.496,15.665C0.178,15.227 0,14.633 0,14.014C0,13.395 0.178,12.801 0.496,12.363L8.957,0.684C9.275,0.246 9.705,0 10.154,0C10.603,0 11.033,0.246 11.35,0.684ZM21.504,0.684C21.822,1.122 22,1.716 22,2.335C22,2.955 21.822,3.549 21.504,3.987L14.239,14.014L21.504,24.042C21.813,24.482 21.983,25.072 21.98,25.685C21.976,26.297 21.798,26.883 21.484,27.316C21.17,27.749 20.746,27.995 20.302,28C19.858,28.005 19.431,27.77 19.111,27.344L10.65,15.665C10.332,15.227 10.154,14.633 10.154,14.014C10.154,13.395 10.332,12.801 10.65,12.363L19.111,0.684C19.429,0.246 19.859,0 20.308,0C20.757,0 21.187,0.246 21.504,0.684Z" clip-rule="evenodd" fill-rule="evenodd" fill="#27387B"/>
</g>
<defs>
<filter id="filter450_225" x="-4" y="-4" width="19" height="22" filterUnits="userSpaceOnUse" color-interpolation-filters="sRGB">
<feFlood flood-opacity="0" result="BackgroundImageFix"/>
<feColorMatrix in="SourceAlpha" type="matrix" values="0 0 0 0 0 0 0 0 0 0 0 0 0 0 0 0 0 0 127 0" result="hardAlpha"/>
<feMorphology radius="0" operator="dilate" in="SourceAlpha" result="0dropshadow"/>
<feOffset dx="0" dy="4"/>
<feGaussianBlur stdDeviation="2"/>
<feComposite in2="hardAlpha" operator="out"/>
<feColorMatrix type="matrix" values="0 0 0 0 0 0 0 0 0 0 0 0 0 0 0 0 0 0 0.25 0"/>
<feBlend mode="normal" in2="BackgroundImageFix" result="0dropshadow"/>
<feBlend mode="normal" in="SourceGraphic" in2="0dropshadow" result="shape"/>
</filter>
</defs>
</svg>
