<svg width="38" height="32" viewBox="0 0 38 32" fill="none" xmlns="http://www.w3.org/2000/svg" xmlns:xlink="http://www.w3.org/1999/xlink">
<path d="M19,30.5C17.892,30.5 16.955,30.057 16.19,29.171C15.424,28.285 15.042,27.2 15.042,25.917C15.042,24.633 15.424,23.549 16.19,22.663C16.955,21.776 17.892,21.333 19,21.333C20.108,21.333 21.045,21.776 21.81,22.663C22.576,23.549 22.958,24.633 22.958,25.917C22.958,27.2 22.576,28.285 21.81,29.171C21.045,30.057 20.108,30.5 19,30.5ZM10.054,20.142L6.729,16.2C8.286,14.397 10.114,12.969 12.212,11.916C14.311,10.862 16.573,10.335 19,10.333C21.428,10.333 23.691,10.868 25.789,11.938C27.888,13.007 29.715,14.458 31.271,16.292L27.946,20.142C26.785,18.797 25.439,17.743 23.908,16.979C22.378,16.215 20.742,15.833 19,15.833C17.258,15.833 15.622,16.215 14.092,16.979C12.561,17.743 11.215,18.797 10.054,20.142ZM3.325,12.35L0,8.5C2.428,5.628 5.265,3.382 8.51,1.763C11.756,0.143 15.253,-0.667 19,-0.667C22.747,-0.667 26.244,0.143 29.49,1.763C32.735,3.382 35.572,5.628 38,8.5L34.675,12.35C32.643,9.997 30.288,8.156 27.609,6.826C24.93,5.497 22.06,4.832 19,4.833C15.939,4.833 13.069,5.498 10.39,6.828C7.711,8.158 5.356,9.999 3.325,12.35Z" fill="#0C0C0C"/>
</svg>
