<svg width="50" height="42" viewBox="0 0 50 42" fill="none" xmlns="http://www.w3.org/2000/svg" xmlns:xlink="http://www.w3.org/1999/xlink">
<path d="M14,9.333C14,6.858 15.159,4.484 17.222,2.734C19.285,0.983 22.083,0 25,0C27.917,0 30.715,0.983 32.778,2.734C34.841,4.484 36,6.858 36,9.333C36,11.809 34.841,14.183 32.778,15.933C30.715,17.683 27.917,18.667 25,18.667C22.083,18.667 19.285,17.683 17.222,15.933C15.159,14.183 14,11.809 14,9.333ZM14,23.333C10.353,23.333 6.856,24.562 4.277,26.75C1.699,28.938 0.25,31.906 0.25,35C0.25,36.857 1.119,38.637 2.666,39.95C4.214,41.263 6.312,42 8.5,42L41.5,42C43.688,42 45.786,41.263 47.334,39.95C48.881,38.637 49.75,36.857 49.75,35C49.75,31.906 48.301,28.938 45.723,26.75C43.144,24.562 39.647,23.333 36,23.333L14,23.333Z" clip-rule="evenodd" fill-rule="evenodd" fill="#294C90"/>
</svg>
