<svg width="40" height="38" viewBox="0 0 40 38" fill="none" xmlns="http://www.w3.org/2000/svg" xmlns:xlink="http://www.w3.org/1999/xlink">
<path d="M37.279,26.056L28.053,22.087C27.635,21.915 27.179,21.846 26.726,21.886C26.273,21.926 25.837,22.073 25.459,22.316C25.421,22.339 25.384,22.366 25.35,22.394L20.527,26.332C20.477,26.358 20.422,26.373 20.365,26.375C20.308,26.377 20.251,26.366 20.199,26.343C17.1,24.907 13.889,21.843 12.387,18.909C12.362,18.86 12.349,18.806 12.349,18.751C12.349,18.697 12.362,18.643 12.387,18.594L16.502,13.906C16.532,13.872 16.559,13.835 16.584,13.798C16.833,13.433 16.983,13.015 17.021,12.58C17.059,12.146 16.984,11.709 16.803,11.309L12.697,2.467C12.464,1.945 12.061,1.51 11.548,1.226C11.035,0.943 10.441,0.827 9.854,0.896C7.301,1.218 4.958,2.421 3.263,4.281C1.567,6.14 0.635,8.529 0.641,11C0.641,25.681 13.082,37.625 28.375,37.625C30.949,37.63 33.437,36.735 35.374,35.107C37.311,33.48 38.564,31.231 38.9,28.781C38.972,28.22 38.853,27.651 38.56,27.16C38.268,26.67 37.819,26.282 37.279,26.056ZM28.375,35.375C14.375,35.375 2.984,24.44 2.984,11C2.978,9.076 3.701,7.216 5.019,5.767C6.337,4.317 8.16,3.378 10.147,3.125L10.191,3.125C10.27,3.127 10.347,3.151 10.411,3.195C10.475,3.238 10.524,3.3 10.551,3.371L14.672,12.204C14.695,12.253 14.708,12.306 14.708,12.36C14.708,12.414 14.695,12.468 14.672,12.517L10.549,17.216C10.518,17.249 10.49,17.285 10.465,17.323C10.207,17.701 10.055,18.136 10.024,18.587C9.993,19.038 10.083,19.489 10.287,19.897C12.02,23.302 15.594,26.707 19.18,28.37C19.607,28.565 20.079,28.65 20.55,28.617C21.022,28.584 21.476,28.434 21.869,28.183C21.906,28.158 21.943,28.132 21.979,28.104L26.799,24.166C26.846,24.142 26.899,24.127 26.953,24.124C27.007,24.121 27.061,24.129 27.111,24.148L36.34,28.117C36.415,28.148 36.479,28.201 36.521,28.268C36.563,28.335 36.583,28.414 36.576,28.492C36.314,30.4 35.337,32.151 33.827,33.418C32.318,34.684 30.38,35.38 28.375,35.375Z" fill="#294C90"/>
</svg>
